<svg width="24" height="24" xmlns="http://www.w3.org/2000/svg"><g><g transform="matrix(.31 0 0 .31 8.435 7.815)"><linearGradient id="a" gradientUnits="userSpaceOnUse" x1="20.499" y1="13.001" x2="20.499" y2="23.584"><stop offset="0%" style="stop-color:#6dc7ff;stop-opacity:1"/><stop offset="100%" style="stop-color:#e6abff;stop-opacity:1"/></linearGradient><path style="stroke:none;stroke-width:1;stroke-dasharray:none;stroke-linecap:butt;stroke-dashoffset:0;stroke-linejoin:miter;stroke-miterlimit:4;fill:url(#a);fill-rule:nonzero;opacity:1" transform="translate(-20.5 -18.5)" d="M25 14.001c-5 0-9.002 3.999-9.002 8.999H25v-8.999z"/></g><g transform="matrix(.31 0 0 .31 9.83 9.21)"><linearGradient id="b" gradientUnits="userSpaceOnUse" x1="24.511" y1="5.27" x2="26.011" y2="59.777"><stop offset="0%" style="stop-color:#1a6dff;stop-opacity:1"/><stop offset="100%" style="stop-color:#c822ff;stop-opacity:1"/></linearGradient><path style="stroke:none;stroke-width:1;stroke-dasharray:none;stroke-linecap:butt;stroke-dashoffset:0;stroke-linejoin:miter;stroke-miterlimit:4;fill:url(#b);fill-rule:nonzero;opacity:1" transform="translate(-25 -23)" d="M24.999 10c-7.169 0-13.002 5.832-13.002 13.002 0 7.17 5.833 13.002 13.002 13.002 7.169 0 13.002-5.832 13.002-13.002 0-7.17-5.833-13.002-13.002-13.002zm0 24.003c-6.066 0-11.001-4.935-11.001-11.001s4.935-11.001 11.001-11.001S36 16.936 36 23.002s-4.935 11.001-11.001 11.001z"/></g><g transform="matrix(.31 0 0 .31 12 12)"><linearGradient id="c" gradientUnits="userSpaceOnUse" x1="31.109" y1="5.089" x2="32.609" y2="59.595"><stop offset="0%" style="stop-color:#1a6dff;stop-opacity:1"/><stop offset="100%" style="stop-color:#c822ff;stop-opacity:1"/></linearGradient><path style="stroke:none;stroke-width:1;stroke-dasharray:none;stroke-linecap:butt;stroke-dashoffset:0;stroke-linejoin:miter;stroke-miterlimit:4;fill:url(#c);fill-rule:nonzero;opacity:1" transform="translate(-32 -32)" d="m54.77 48.559-8.752-9.864c-.719-.812-1.995-.92-2.845-.243l-2.486 1.973-4.125-4.994c3.337-3.106 5.439-7.521 5.439-12.429C42.001 13.627 34.374 6 24.999 6S7.997 13.627 7.997 23.002s7.627 17.002 17.002 17.002c3.749 0 7.207-1.234 10.021-3.298l4.099 4.963-2.366 1.877c-.434.344-.698.832-.746 1.374-.047.539.127 1.06.49 1.469l8.753 9.865C46.272 57.406 47.739 58 49.215 58c1.169 0 2.344-.373 3.307-1.137l1.607-1.274c1.08-.858 1.739-2.068 1.856-3.406.115-1.324-.316-2.611-1.215-3.624zM9.997 23.002C9.997 14.73 16.727 8 24.999 8s15.002 6.73 15.002 15.002-6.729 15.002-15.002 15.002-15.002-6.73-15.002-15.002zm38.645 21.664-6.467 5.133-1.477-1.656 6.472-5.136 1.472 1.659zm-4.224-4.648c.013-.01.03-.014.049-.014.022 0 .045.007.055.018l1.319 1.487-6.476 5.139-1.368-1.534 6.421-5.096zm8.467 14.004-1.607 1.274c-1.361 1.081-3.394.915-4.532-.369l-3.239-3.632 6.464-5.13 3.303 3.722c.53.598.785 1.351.718 2.122-.068.786-.462 1.501-1.107 2.013z"/></g></g></svg>